<svg xmlns="http://www.w3.org/2000/svg" xmlns:xlink="http://www.w3.org/1999/xlink" width="500" zoomAndPan="magnify" viewBox="0 0 375 374.999991" height="500" preserveAspectRatio="xMidYMid meet" version="1.0"><defs><g/><clipPath id="3514562bd5"><path d="M 37 135.945312 L 114.804688 135.945312 L 114.804688 215 L 37 215 Z M 37 135.945312 " clip-rule="nonzero"/></clipPath><clipPath id="38f4fd948f"><path d="M 32.304688 145 L 106 145 L 106 218.445312 L 32.304688 218.445312 Z M 32.304688 145 " clip-rule="nonzero"/></clipPath><clipPath id="894d7a768f"><path d="M 71 178 L 83 178 L 83 190 L 71 190 Z M 71 178 " clip-rule="nonzero"/></clipPath><clipPath id="bed368f84b"><path d="M 83.730469 188.039062 L 72.753906 190.851562 L 69.941406 179.875 L 80.917969 177.0625 Z M 83.730469 188.039062 " clip-rule="nonzero"/></clipPath><clipPath id="6057b76b85"><path d="M 78.242188 189.445312 C 81.273438 188.667969 83.101562 185.582031 82.324219 182.550781 C 81.546875 179.519531 78.460938 177.691406 75.429688 178.46875 C 72.398438 179.246094 70.570312 182.332031 71.347656 185.363281 C 72.125 188.394531 75.210938 190.222656 78.242188 189.445312 " clip-rule="nonzero"/></clipPath><clipPath id="fa472639f8"><path d="M 50 182 L 59 182 L 59 191 L 50 191 Z M 50 182 " clip-rule="nonzero"/></clipPath><clipPath id="1e5b4eef24"><path d="M 50.917969 181.585938 L 59.296875 182.765625 L 58.117188 191.144531 L 49.738281 189.964844 Z M 50.917969 181.585938 " clip-rule="nonzero"/></clipPath><clipPath id="01ecff0287"><path d="M 55.109375 182.175781 C 52.792969 181.847656 50.652344 183.460938 50.328125 185.777344 C 50.003906 188.089844 51.613281 190.230469 53.929688 190.554688 C 56.242188 190.878906 58.382812 189.269531 58.707031 186.953125 C 59.035156 184.640625 57.421875 182.5 55.109375 182.175781 " clip-rule="nonzero"/></clipPath></defs><g fill="#f0f1e7" fill-opacity="1"><g transform="translate(113.432296, 192.059089)"><g><path d="M 2.234375 -11.421875 C 1.160156 -11.941406 0.625 -12.894531 0.625 -14.28125 C 0.625 -15.664062 1.175781 -16.632812 2.28125 -17.1875 C 11.769531 -22.800781 17.21875 -26.035156 18.625 -26.890625 C 20.039062 -27.753906 20.890625 -28.226562 21.171875 -28.3125 C 21.472656 -28.445312 21.832031 -28.515625 22.25 -28.515625 C 23 -28.515625 23.773438 -27.835938 24.578125 -26.484375 C 25.097656 -25.628906 25.359375 -24.984375 25.359375 -24.546875 C 25.359375 -24.117188 25.265625 -23.753906 25.078125 -23.453125 C 24.828125 -23.015625 24.257812 -22.503906 23.375 -21.921875 C 15.125 -17.046875 10.832031 -14.5 10.5 -14.28125 L 23.375 -6.640625 C 23.894531 -6.335938 24.269531 -6.085938 24.5 -5.890625 C 25.101562 -5.390625 25.40625 -4.851562 25.40625 -4.28125 C 25.40625 -3.726562 25.160156 -3.054688 24.671875 -2.265625 C 24.191406 -1.472656 23.757812 -0.910156 23.375 -0.578125 C 22.988281 -0.242188 22.585938 -0.078125 22.171875 -0.078125 C 21.617188 -0.078125 20.898438 -0.34375 20.015625 -0.875 Z M 2.234375 -11.421875 "/></g></g></g><g fill="#f0f1e7" fill-opacity="1"><g transform="translate(139.457601, 192.059089)"><g><path d="M 7.3125 0.328125 C 7.082031 0.796875 6.90625 1.140625 6.78125 1.359375 C 6.65625 1.585938 6.445312 1.804688 6.15625 2.015625 C 5.875 2.222656 5.492188 2.328125 5.015625 2.328125 C 4.546875 2.328125 3.851562 2.117188 2.9375 1.703125 C 2.03125 1.285156 1.414062 0.914062 1.09375 0.59375 C 0.78125 0.28125 0.625 -0.0664062 0.625 -0.453125 C 0.625 -0.835938 0.789062 -1.53125 1.125 -2.53125 L 14.484375 -30.46875 C 15.015625 -31.519531 15.488281 -32.128906 15.90625 -32.296875 C 16.125 -32.410156 16.445312 -32.46875 16.875 -32.46875 C 17.300781 -32.46875 18 -32.242188 18.96875 -31.796875 C 20.46875 -31.078125 21.21875 -30.289062 21.21875 -29.4375 C 21.21875 -29.070312 21.023438 -28.378906 20.640625 -27.359375 Z M 7.3125 0.328125 "/></g></g></g><g fill="#f0f1e7" fill-opacity="1"><g transform="translate(161.290635, 192.059089)"><g/></g></g><g fill="#f0f1e7" fill-opacity="1"><g transform="translate(171.792078, 192.059089)"><g><path d="M 5.359375 -30.46875 L 13.03125 -30.4375 C 17.050781 -30.4375 20.582031 -28.988281 23.625 -26.09375 C 26.664062 -23.195312 28.1875 -19.640625 28.1875 -15.421875 C 28.1875 -11.203125 26.695312 -7.582031 23.71875 -4.5625 C 20.75 -1.550781 17.144531 -0.046875 12.90625 -0.046875 L 5.3125 -0.046875 C 3.625 -0.046875 2.570312 -0.390625 2.15625 -1.078125 C 1.820312 -1.660156 1.65625 -2.546875 1.65625 -3.734375 L 1.65625 -26.8125 C 1.65625 -27.476562 1.675781 -27.960938 1.71875 -28.265625 C 1.757812 -28.578125 1.894531 -28.9375 2.125 -29.34375 C 2.507812 -30.09375 3.585938 -30.46875 5.359375 -30.46875 Z M 13.03125 -7.390625 C 15.03125 -7.390625 16.832031 -8.128906 18.4375 -9.609375 C 20.039062 -11.085938 20.84375 -12.945312 20.84375 -15.1875 C 20.84375 -17.4375 20.0625 -19.3125 18.5 -20.8125 C 16.9375 -22.320312 15.101562 -23.078125 13 -23.078125 L 9.015625 -23.078125 L 9.015625 -7.390625 Z M 13.03125 -7.390625 "/></g></g></g><g fill="#f0f1e7" fill-opacity="1"><g transform="translate(201.013473, 192.059089)"><g><path d="M 1.65625 -26.78125 C 1.65625 -27.414062 1.675781 -27.890625 1.71875 -28.203125 C 1.757812 -28.523438 1.894531 -28.894531 2.125 -29.3125 C 2.507812 -30.0625 3.585938 -30.4375 5.359375 -30.4375 C 7.296875 -30.4375 8.441406 -29.921875 8.796875 -28.890625 C 8.941406 -28.421875 9.015625 -27.703125 9.015625 -26.734375 L 9.015625 -3.65625 C 9.015625 -2.988281 8.992188 -2.503906 8.953125 -2.203125 C 8.910156 -1.898438 8.773438 -1.539062 8.546875 -1.125 C 8.160156 -0.375 7.082031 0 5.3125 0 C 3.375 0 2.238281 -0.523438 1.90625 -1.578125 C 1.738281 -2.015625 1.65625 -2.71875 1.65625 -3.6875 Z M 1.65625 -26.78125 "/></g></g></g><g fill="#f0f1e7" fill-opacity="1"><g transform="translate(211.680945, 192.059089)"><g><path d="M 9.015625 -6.140625 L 20.296875 -6.140625 C 21.210938 -6.140625 21.878906 -6.035156 22.296875 -5.828125 C 22.710938 -5.617188 22.988281 -5.289062 23.125 -4.84375 C 23.257812 -4.40625 23.328125 -3.820312 23.328125 -3.09375 C 23.328125 -2.363281 23.257812 -1.773438 23.125 -1.328125 C 22.988281 -0.890625 22.753906 -0.585938 22.421875 -0.421875 C 21.890625 -0.140625 21.171875 0 20.265625 0 L 5.3125 0 C 3.375 0 2.238281 -0.523438 1.90625 -1.578125 C 1.738281 -2.015625 1.65625 -2.71875 1.65625 -3.6875 L 1.65625 -26.78125 C 1.65625 -27.414062 1.675781 -27.890625 1.71875 -28.203125 C 1.757812 -28.523438 1.894531 -28.894531 2.125 -29.3125 C 2.507812 -30.0625 3.585938 -30.4375 5.359375 -30.4375 C 7.296875 -30.4375 8.441406 -29.921875 8.796875 -28.890625 C 8.941406 -28.421875 9.015625 -27.703125 9.015625 -26.734375 Z M 9.015625 -6.140625 "/></g></g></g><g fill="#f0f1e7" fill-opacity="1"><g transform="translate(236.045939, 192.059089)"><g><path d="M 16.328125 -30.984375 C 16.535156 -31.390625 16.898438 -31.675781 17.421875 -31.84375 C 17.953125 -32.007812 18.65625 -32.09375 19.53125 -32.09375 C 20.40625 -32.09375 21.101562 -32.007812 21.625 -31.84375 C 22.15625 -31.675781 22.523438 -31.382812 22.734375 -30.96875 C 22.941406 -30.550781 23.066406 -30.179688 23.109375 -29.859375 C 23.148438 -29.546875 23.171875 -29.070312 23.171875 -28.4375 L 23.171875 -3.65625 C 23.171875 -3.019531 23.148438 -2.539062 23.109375 -2.21875 C 23.066406 -1.90625 22.929688 -1.550781 22.703125 -1.15625 C 22.296875 -0.414062 21.128906 -0.046875 19.203125 -0.046875 C 17.273438 -0.046875 16.203125 -0.722656 15.984375 -2.078125 C 14.816406 -0.742188 13.195312 -0.078125 11.125 -0.078125 C 8.632812 -0.078125 6.363281 -1.160156 4.3125 -3.328125 C 2.269531 -5.503906 1.25 -8.039062 1.25 -10.9375 C 1.25 -13.832031 2.28125 -16.375 4.34375 -18.5625 C 6.40625 -20.75 8.664062 -21.84375 11.125 -21.84375 C 13.175781 -21.84375 14.769531 -21.148438 15.90625 -19.765625 L 15.90625 -28.484375 C 15.90625 -29.117188 15.925781 -29.59375 15.96875 -29.90625 C 16.007812 -30.226562 16.128906 -30.585938 16.328125 -30.984375 Z M 9.59375 -8.421875 C 10.3125 -7.679688 11.179688 -7.3125 12.203125 -7.3125 C 13.222656 -7.3125 14.070312 -7.679688 14.75 -8.421875 C 15.4375 -9.171875 15.78125 -9.992188 15.78125 -10.890625 C 15.78125 -11.796875 15.453125 -12.632812 14.796875 -13.40625 C 14.148438 -14.1875 13.269531 -14.578125 12.15625 -14.578125 C 11.050781 -14.578125 10.164062 -14.191406 9.5 -13.421875 C 8.84375 -12.660156 8.515625 -11.820312 8.515625 -10.90625 C 8.515625 -10 8.875 -9.171875 9.59375 -8.421875 Z M 9.59375 -8.421875 "/></g></g></g><g fill="#f0f1e7" fill-opacity="1"><g transform="translate(260.867523, 192.059089)"><g><path d="M 15.859375 -19.546875 C 16.023438 -21.097656 17.117188 -21.875 19.140625 -21.875 C 20.210938 -21.875 21.007812 -21.789062 21.53125 -21.625 C 22.0625 -21.457031 22.429688 -21.164062 22.640625 -20.75 C 22.847656 -20.34375 22.972656 -19.976562 23.015625 -19.65625 C 23.054688 -19.34375 23.078125 -18.863281 23.078125 -18.21875 L 23.078125 -3.6875 C 23.078125 -3.050781 23.054688 -2.570312 23.015625 -2.25 C 22.972656 -1.9375 22.859375 -1.570312 22.671875 -1.15625 C 22.285156 -0.4375 21.335938 -0.078125 19.828125 -0.078125 C 18.316406 -0.078125 17.304688 -0.265625 16.796875 -0.640625 C 16.285156 -1.015625 15.988281 -1.5625 15.90625 -2.28125 C 14.875 -0.8125 13.160156 -0.078125 10.765625 -0.078125 C 8.378906 -0.078125 6.160156 -1.171875 4.109375 -3.359375 C 2.054688 -5.546875 1.03125 -8.082031 1.03125 -10.96875 C 1.03125 -13.863281 2.0625 -16.398438 4.125 -18.578125 C 6.1875 -20.753906 8.453125 -21.84375 10.921875 -21.84375 C 11.859375 -21.84375 12.710938 -21.675781 13.484375 -21.34375 C 14.265625 -21.007812 14.804688 -20.695312 15.109375 -20.40625 C 15.410156 -20.113281 15.660156 -19.828125 15.859375 -19.546875 Z M 8.296875 -10.90625 C 8.296875 -10 8.65625 -9.175781 9.375 -8.4375 C 10.101562 -7.707031 10.976562 -7.34375 12 -7.34375 C 13.019531 -7.34375 13.867188 -7.71875 14.546875 -8.46875 C 15.222656 -9.21875 15.5625 -10.039062 15.5625 -10.9375 C 15.5625 -11.832031 15.234375 -12.664062 14.578125 -13.4375 C 13.929688 -14.21875 13.0625 -14.609375 11.96875 -14.609375 C 10.882812 -14.609375 10 -14.21875 9.3125 -13.4375 C 8.632812 -12.664062 8.296875 -11.820312 8.296875 -10.90625 Z M 8.296875 -10.90625 "/></g></g></g><g fill="#f0f1e7" fill-opacity="1"><g transform="translate(285.606087, 192.059089)"><g><path d="M 2.125 -4.28125 C 1.394531 -5.164062 1.03125 -5.957031 1.03125 -6.65625 C 1.03125 -7.363281 1.628906 -8.300781 2.828125 -9.46875 C 3.515625 -10.132812 4.242188 -10.46875 5.015625 -10.46875 C 5.796875 -10.46875 6.878906 -9.773438 8.265625 -8.390625 C 8.648438 -7.921875 9.203125 -7.46875 9.921875 -7.03125 C 10.640625 -6.601562 11.304688 -6.390625 11.921875 -6.390625 C 14.492188 -6.390625 15.78125 -7.441406 15.78125 -9.546875 C 15.78125 -10.179688 15.425781 -10.710938 14.71875 -11.140625 C 14.007812 -11.578125 13.128906 -11.890625 12.078125 -12.078125 C 11.023438 -12.273438 9.890625 -12.585938 8.671875 -13.015625 C 7.453125 -13.441406 6.316406 -13.945312 5.265625 -14.53125 C 4.210938 -15.113281 3.332031 -16.035156 2.625 -17.296875 C 1.925781 -18.554688 1.578125 -20.070312 1.578125 -21.84375 C 1.578125 -24.269531 2.484375 -26.390625 4.296875 -28.203125 C 6.109375 -30.015625 8.578125 -30.921875 11.703125 -30.921875 C 13.367188 -30.921875 14.882812 -30.707031 16.25 -30.28125 C 17.625 -29.851562 18.570312 -29.421875 19.09375 -28.984375 L 20.140625 -28.1875 C 20.992188 -27.382812 21.421875 -26.707031 21.421875 -26.15625 C 21.421875 -25.601562 21.085938 -24.84375 20.421875 -23.875 C 19.484375 -22.488281 18.515625 -21.796875 17.515625 -21.796875 C 16.929688 -21.796875 16.210938 -22.070312 15.359375 -22.625 C 15.273438 -22.675781 15.113281 -22.8125 14.875 -23.03125 C 14.644531 -23.257812 14.429688 -23.441406 14.234375 -23.578125 C 13.660156 -23.941406 12.921875 -24.125 12.015625 -24.125 C 11.117188 -24.125 10.375 -23.90625 9.78125 -23.46875 C 9.1875 -23.039062 8.890625 -22.445312 8.890625 -21.6875 C 8.890625 -20.925781 9.238281 -20.3125 9.9375 -19.84375 C 10.644531 -19.375 11.523438 -19.054688 12.578125 -18.890625 C 13.628906 -18.722656 14.773438 -18.46875 16.015625 -18.125 C 17.265625 -17.78125 18.414062 -17.359375 19.46875 -16.859375 C 20.519531 -16.359375 21.398438 -15.488281 22.109375 -14.25 C 22.816406 -13.019531 23.171875 -11.503906 23.171875 -9.703125 C 23.171875 -7.910156 22.804688 -6.328125 22.078125 -4.953125 C 21.359375 -3.585938 20.421875 -2.53125 19.265625 -1.78125 C 17.023438 -0.3125 14.628906 0.421875 12.078125 0.421875 C 10.773438 0.421875 9.539062 0.257812 8.375 -0.0625 C 7.21875 -0.382812 6.28125 -0.78125 5.5625 -1.25 C 4.09375 -2.132812 3.066406 -2.988281 2.484375 -3.8125 Z M 2.125 -4.28125 "/></g></g></g><g fill="#f0f1e7" fill-opacity="1"><g transform="translate(309.80505, 192.059089)"><g/></g></g><g fill="#f0f1e7" fill-opacity="1"><g transform="translate(320.306493, 192.059089)"><g><path d="M 23.703125 -17.1875 C 24.804688 -16.632812 25.359375 -15.664062 25.359375 -14.28125 C 25.359375 -12.894531 24.816406 -11.941406 23.734375 -11.421875 L 6.015625 -0.875 C 4.597656 0.0390625 3.460938 0.140625 2.609375 -0.578125 C 2.222656 -0.910156 1.820312 -1.410156 1.40625 -2.078125 C 0.851562 -2.992188 0.578125 -3.65625 0.578125 -4.0625 C 0.578125 -4.476562 0.660156 -4.835938 0.828125 -5.140625 C 1.128906 -5.617188 1.722656 -6.117188 2.609375 -6.640625 L 15.515625 -14.28125 L 2.65625 -21.921875 C 2.15625 -22.222656 1.78125 -22.472656 1.53125 -22.671875 C 0.925781 -23.191406 0.625 -23.757812 0.625 -24.375 C 0.625 -24.925781 0.859375 -25.585938 1.328125 -26.359375 C 2.179688 -27.796875 2.984375 -28.515625 3.734375 -28.515625 C 4.398438 -28.515625 5.144531 -28.253906 5.96875 -27.734375 Z M 23.703125 -17.1875 "/></g></g></g><g fill="#03fa6e" fill-opacity="1"><g transform="translate(224.226383, 210.753568)"><g><path d="M 6.492188 0 L 6.972656 -2.210938 L 5.09375 -2.210938 C 4.074219 -2.210938 3.878906 -2.601562 4.089844 -3.5625 L 4.703125 -6.464844 L 7.859375 -6.464844 L 8.328125 -8.628906 L 5.171875 -8.628906 L 5.726562 -11.273438 L 3.335938 -11.273438 L 2.765625 -8.628906 L 1.261719 -8.628906 L 0.796875 -6.464844 L 2.316406 -6.464844 L 1.53125 -2.8125 C 1.171875 -1.097656 1.789062 0 3.757812 0 Z M 6.492188 0 "/></g></g></g><g fill="#03fa6e" fill-opacity="1"><g transform="translate(231.693585, 210.753568)"><g><path d="M 6.207031 -8.972656 C 3.320312 -8.972656 1.203125 -7.050781 0.632812 -4.449219 C 0.0585938 -1.667969 1.429688 0.226562 4.433594 0.226562 C 6.117188 0.226562 7.410156 -0.300781 8.386719 -0.839844 L 7.753906 -2.691406 C 7.019531 -2.238281 6.027344 -1.863281 4.960938 -1.863281 C 3.59375 -1.863281 2.960938 -2.660156 2.976562 -3.816406 L 9.4375 -3.816406 L 9.484375 -4.027344 C 10.128906 -7.109375 8.792969 -8.972656 6.207031 -8.972656 Z M 5.832031 -7.035156 C 7.035156 -7.035156 7.410156 -6.28125 7.335938 -5.289062 L 3.320312 -5.289062 C 3.816406 -6.3125 4.78125 -7.035156 5.832031 -7.035156 Z M 5.832031 -7.035156 "/></g></g></g><g fill="#03fa6e" fill-opacity="1"><g transform="translate(241.264307, 210.753568)"><g><path d="M 4.328125 0.226562 C 5.367188 0.226562 6.539062 -0.03125 7.457031 -0.480469 L 6.898438 -2.253906 C 6.238281 -1.9375 5.578125 -1.757812 4.871094 -1.757812 C 3.335938 -1.757812 2.707031 -2.871094 3.019531 -4.375 C 3.351562 -5.890625 4.523438 -6.972656 5.96875 -6.972656 C 6.671875 -6.972656 7.273438 -6.777344 7.800781 -6.464844 L 9.125 -8.238281 C 8.386719 -8.703125 7.320312 -8.972656 6.28125 -8.972656 C 3.351562 -8.972656 1.203125 -7.078125 0.617188 -4.375 C 0.046875 -1.652344 1.503906 0.226562 4.328125 0.226562 Z M 4.328125 0.226562 "/></g></g></g><g fill="#03fa6e" fill-opacity="1"><g transform="translate(249.332516, 210.753568)"><g><path d="M 7.09375 -8.957031 C 5.847656 -8.957031 4.691406 -8.433594 3.878906 -7.5 L 4.117188 -8.628906 L 1.742188 -8.628906 L -0.0898438 0 L 2.285156 0 L 3.335938 -4.960938 C 3.683594 -6.296875 4.539062 -7.019531 5.5625 -7.019531 C 6.433594 -7.019531 6.960938 -6.613281 6.75 -5.605469 L 5.578125 0 L 7.949219 0 L 9.320312 -6.371094 C 9.695312 -8.070312 8.597656 -8.957031 7.09375 -8.957031 Z M 7.09375 -8.957031 "/></g></g></g><g fill="#03fa6e" fill-opacity="1"><g transform="translate(258.662831, 210.753568)"><g><path d="M 4.433594 0.242188 C 7.273438 0.242188 9.632812 -1.714844 10.191406 -4.390625 C 10.761719 -7.035156 9.214844 -8.972656 6.386719 -8.972656 C 3.515625 -8.972656 1.1875 -7.035156 0.617188 -4.390625 L 0.617188 -4.375 C 0.0585938 -1.714844 1.625 0.242188 4.433594 0.242188 Z M 4.886719 -1.894531 C 3.441406 -1.894531 2.734375 -2.976562 3.019531 -4.390625 C 3.320312 -5.785156 4.480469 -6.839844 5.9375 -6.839844 C 7.394531 -6.839844 8.101562 -5.785156 7.800781 -4.390625 C 7.515625 -2.976562 6.3125 -1.894531 4.886719 -1.894531 Z M 4.886719 -1.894531 "/></g></g></g><g fill="#03fa6e" fill-opacity="1"><g transform="translate(268.879627, 210.753568)"><g><path d="M 2.285156 0 L 4.886719 -12.191406 L 2.496094 -12.191406 L -0.105469 0 Z M 2.285156 0 "/></g></g></g><g fill="#03fa6e" fill-opacity="1"><g transform="translate(272.320094, 210.753568)"><g><path d="M 4.433594 0.242188 C 7.273438 0.242188 9.632812 -1.714844 10.191406 -4.390625 C 10.761719 -7.035156 9.214844 -8.972656 6.386719 -8.972656 C 3.515625 -8.972656 1.1875 -7.035156 0.617188 -4.390625 L 0.617188 -4.375 C 0.0585938 -1.714844 1.625 0.242188 4.433594 0.242188 Z M 4.886719 -1.894531 C 3.441406 -1.894531 2.734375 -2.976562 3.019531 -4.390625 C 3.320312 -5.785156 4.480469 -6.839844 5.9375 -6.839844 C 7.394531 -6.839844 8.101562 -5.785156 7.800781 -4.390625 C 7.515625 -2.976562 6.3125 -1.894531 4.886719 -1.894531 Z M 4.886719 -1.894531 "/></g></g></g><g fill="#03fa6e" fill-opacity="1"><g transform="translate(282.536891, 210.753568)"><g><path d="M 6.597656 -8.957031 C 3.53125 -8.957031 1.171875 -7.246094 0.601562 -4.328125 C 0.0742188 -1.863281 1.097656 -0.164062 3.367188 -0.164062 C 4.539062 -0.164062 5.515625 -0.617188 6.238281 -1.472656 C 5.710938 0.78125 5.382812 1.382812 3.757812 1.382812 C 2.78125 1.382812 1.59375 1.128906 0.675781 0.8125 L 0.738281 2.960938 C 1.234375 3.15625 2.570312 3.472656 3.847656 3.472656 C 6.792969 3.472656 7.800781 2.328125 8.492188 -0.902344 L 10.117188 -8.460938 C 8.597656 -8.824219 7.53125 -8.957031 6.597656 -8.957031 Z M 6.765625 -3.894531 C 6.328125 -2.523438 5.546875 -1.894531 4.539062 -1.894531 C 3.261719 -1.894531 2.644531 -2.78125 2.992188 -4.3125 C 3.320312 -5.832031 4.480469 -6.734375 6.011719 -6.75 C 6.449219 -6.75 6.882812 -6.671875 7.320312 -6.539062 Z M 6.765625 -3.894531 "/></g></g></g><g fill="#03fa6e" fill-opacity="1"><g transform="translate(292.017457, 210.753568)"><g><path d="M 3.171875 -9.753906 C 3.816406 -9.753906 4.433594 -10.085938 4.585938 -10.808594 C 4.71875 -11.453125 4.3125 -11.84375 3.621094 -11.84375 C 2.914062 -11.84375 2.34375 -11.453125 2.210938 -10.808594 C 2.058594 -10.085938 2.511719 -9.753906 3.171875 -9.753906 Z M 2.285156 0 L 4.117188 -8.628906 L 1.726562 -8.628906 L -0.105469 0 Z M 2.285156 0 "/></g></g></g><g fill="#03fa6e" fill-opacity="1"><g transform="translate(295.457924, 210.753568)"><g><path d="M 6.554688 -8.957031 C 3.515625 -8.957031 1.140625 -7.230469 0.570312 -4.359375 C -0.0742188 -1.519531 1.082031 0.195312 3.261719 0.195312 C 4.417969 0.195312 5.5625 -0.316406 6.3125 -1.261719 L 6.042969 0 L 8.265625 0 L 10.070312 -8.460938 C 8.550781 -8.824219 7.484375 -8.957031 6.554688 -8.957031 Z M 4.492188 -1.757812 C 3.277344 -1.757812 2.617188 -2.71875 2.960938 -4.359375 C 3.308594 -5.9375 4.464844 -6.867188 5.996094 -6.867188 C 6.328125 -6.867188 6.808594 -6.839844 7.320312 -6.734375 L 6.71875 -3.894531 C 6.296875 -2.449219 5.410156 -1.757812 4.492188 -1.757812 Z M 4.492188 -1.757812 "/></g></g></g><g clip-path="url(#3514562bd5)"><path fill="#263749" d="M 104.054688 166.824219 C 104.609375 166.0625 105.058594 165.230469 105.472656 164.332031 C 108.035156 158.621094 110.941406 154.257812 114.472656 151.246094 C 111.980469 150.621094 109.417969 151.523438 106.789062 153.945312 C 107.34375 151.800781 107.6875 149.308594 107.898438 146.433594 C 104.054688 149.375 102.148438 152.871094 102.53125 156.921875 C 102.773438 159.417969 102.632812 161.390625 102.046875 162.914062 C 101.628906 164.089844 100.9375 164.957031 100.003906 165.578125 C 99.277344 166.0625 98.375 166.339844 97.300781 166.445312 C 98.238281 165.300781 98.550781 164.125 98.308594 162.773438 C 98.0625 161.320312 97.234375 159.691406 95.988281 157.789062 C 94.878906 156.128906 94.1875 154.605469 93.875 153.21875 C 92.765625 148.648438 95.710938 145.601562 102.113281 144.460938 C 100.523438 144.011719 98.550781 143.664062 96.195312 143.351562 L 97.511719 135.976562 C 90.449219 140.789062 86.5 144.980469 86.085938 148.128906 C 85.949219 149.339844 86.292969 150.378906 87.195312 151.28125 C 88.128906 152.179688 88.960938 153.046875 89.6875 153.875 C 91.382812 155.851562 92.457031 157.753906 92.492188 159.96875 C 86.675781 153.910156 78.503906 150.171875 69.433594 150.171875 C 51.777344 150.171875 37.480469 164.472656 37.480469 182.128906 C 37.480469 199.785156 51.777344 214.082031 69.433594 214.082031 C 87.089844 214.082031 101.386719 199.785156 101.386719 182.128906 C 101.386719 178.179688 100.660156 174.441406 99.378906 170.945312 C 100.210938 170.496094 101.007812 169.976562 101.769531 169.351562 C 102.632812 168.625 103.394531 167.792969 104.054688 166.859375 Z M 104.054688 166.824219 " fill-opacity="1" fill-rule="evenodd"/></g><path fill="#263749" d="M 58.804688 186.144531 C 59.429688 178.871094 50.878906 174.789062 47.484375 180.636719 C 48.972656 180.015625 50.011719 179.875 50.601562 180.222656 C 48.175781 181.953125 47.484375 185.207031 48.972656 187.769531 C 50.460938 190.332031 53.679688 191.300781 56.347656 190.054688 C 54.789062 190.226562 53.371094 189.191406 53.058594 187.667969 C 52.78125 186.144531 53.714844 184.621094 55.238281 184.238281 C 56.761719 183.859375 58.320312 184.6875 58.804688 186.175781 Z M 58.804688 186.144531 " fill-opacity="1" fill-rule="evenodd"/><path fill="#263749" d="M 85.152344 178.042969 C 81.101562 171.015625 70.816406 175.964844 71.546875 184.6875 C 72.132812 182.886719 74.039062 181.882812 75.839844 182.371094 C 77.671875 182.855469 78.78125 184.65625 78.433594 186.488281 C 78.089844 188.324219 76.359375 189.605469 74.488281 189.363281 C 77.707031 190.886719 81.550781 189.675781 83.351562 186.628906 C 85.152344 183.546875 84.285156 179.601562 81.410156 177.558594 C 82.140625 177.140625 83.386719 177.316406 85.152344 178.078125 Z M 85.152344 178.042969 " fill-opacity="1" fill-rule="evenodd"/><path fill="#f0f1e7" d="M 70.679688 193.65625 C 68.949219 191.71875 66.457031 190.679688 63.894531 190.816406 C 61.296875 190.957031 58.945312 192.269531 57.421875 194.347656 C 61.261719 191.335938 66.558594 191.058594 70.679688 193.65625 Z M 70.679688 193.65625 " fill-opacity="1" fill-rule="evenodd"/><path fill="#f0f1e7" d="M 63.894531 189.742188 C 68.429688 189.605469 72.03125 194.210938 81.378906 197.878906 C 92.003906 202.066406 94.671875 190.054688 94.671875 182.300781 C 94.671875 181.78125 94.636719 181.226562 94.601562 180.707031 C 93.875 173.644531 89.480469 162.980469 81.378906 166.722656 C 72.582031 170.773438 66.976562 176.585938 61.261719 177.835938 C 58.527344 178.421875 55.101562 175.929688 51.429688 173.089844 C 44.507812 167.726562 41.011719 173.609375 42.046875 184.863281 C 42.394531 188.808594 44.609375 201.0625 51.429688 197.84375 C 56.347656 195.523438 56.519531 189.953125 63.894531 189.707031 Z M 71.546875 184.6875 C 70.816406 175.964844 81.101562 171.015625 85.152344 178.042969 C 83.386719 177.28125 82.140625 177.105469 81.410156 177.523438 C 84.320312 179.601562 85.152344 183.511719 83.351562 186.59375 C 81.550781 189.675781 77.707031 190.851562 74.488281 189.328125 C 76.359375 189.570312 78.089844 188.289062 78.433594 186.453125 C 78.78125 184.621094 77.636719 182.785156 75.839844 182.335938 C 74.003906 181.851562 72.132812 182.886719 71.546875 184.65625 Z M 55.238281 184.203125 C 53.714844 184.585938 52.78125 186.109375 53.058594 187.632812 C 53.335938 189.15625 54.789062 190.226562 56.347656 190.019531 C 53.679688 191.265625 50.460938 190.296875 48.972656 187.734375 C 47.484375 185.171875 48.175781 181.917969 50.601562 180.1875 C 50.011719 179.84375 48.972656 179.980469 47.484375 180.605469 C 50.84375 174.753906 59.394531 178.871094 58.804688 186.109375 C 58.320312 184.621094 56.761719 183.789062 55.238281 184.167969 Z M 55.238281 184.203125 " fill-opacity="1" fill-rule="evenodd"/><g clip-path="url(#38f4fd948f)"><path fill="#263749" d="M 45.40625 205.667969 C 39.347656 199.609375 35.574219 191.230469 35.574219 181.953125 C 35.574219 172.710938 39.3125 164.296875 45.40625 158.238281 C 51.464844 152.179688 59.84375 148.40625 69.121094 148.40625 C 76.945312 148.40625 84.179688 151.105469 89.894531 155.609375 C 89.617188 155.226562 89.304688 154.8125 88.960938 154.464844 C 88.199219 153.566406 87.367188 152.734375 86.5 151.902344 C 85.703125 151.105469 85.21875 150.171875 85.082031 149.097656 C 80.269531 146.746094 74.835938 145.429688 69.121094 145.429688 C 59.046875 145.429688 49.90625 149.515625 43.328125 156.128906 C 36.71875 162.738281 32.632812 171.84375 32.632812 181.917969 C 32.632812 191.992188 36.71875 201.132812 43.328125 207.710938 C 49.941406 214.324219 59.046875 218.410156 69.121094 218.410156 C 79.195312 218.410156 88.335938 214.324219 94.914062 207.710938 C 101.527344 201.097656 105.613281 191.992188 105.613281 181.917969 C 105.613281 177.417969 104.816406 173.125 103.328125 169.144531 C 103.015625 169.457031 102.703125 169.734375 102.355469 170.011719 C 101.871094 170.390625 101.386719 170.773438 100.867188 171.117188 C 102.011719 174.511719 102.632812 178.144531 102.632812 181.917969 C 102.632812 191.164062 98.894531 199.574219 92.800781 205.632812 C 86.742188 211.691406 78.367188 215.464844 69.085938 215.464844 C 59.84375 215.464844 51.429688 211.726562 45.371094 205.632812 Z M 45.40625 205.667969 " fill-opacity="1" fill-rule="evenodd"/></g><g clip-path="url(#894d7a768f)"><g clip-path="url(#bed368f84b)"><g clip-path="url(#6057b76b85)"><path fill="#f0f1e7" d="M 83.730469 188.039062 L 72.753906 190.851562 L 69.941406 179.875 L 80.917969 177.0625 Z M 83.730469 188.039062 " fill-opacity="1" fill-rule="nonzero"/></g></g></g><g fill="#263749" fill-opacity="1"><g transform="translate(73.806153, 188.847225)"><g><path d="M 7.007812 -2.667969 L 6.859375 -5.195312 L 1.164062 -4.792969 L 6.351562 -7.179688 L 5.242188 -9.445312 L -1.15625 -6.046875 L -0.265625 -2.574219 Z M 7.007812 -2.667969 "/></g></g></g><g clip-path="url(#fa472639f8)"><g clip-path="url(#1e5b4eef24)"><g clip-path="url(#01ecff0287)"><path fill="#f0f1e7" d="M 50.917969 181.585938 L 59.296875 182.765625 L 58.117188 191.144531 L 49.738281 189.964844 Z M 50.917969 181.585938 " fill-opacity="1" fill-rule="nonzero"/></g></g></g><g fill="#263749" fill-opacity="1"><g transform="translate(58.005323, 183.850913)"><g><path d="M -5.597656 -0.148438 L -6.214844 1.636719 L -2.167969 2.976562 L -6.429688 3.148438 L -6.308594 5.03125 L -0.921875 4.503906 L -0.550781 1.851562 Z M -5.597656 -0.148438 "/></g></g></g></svg>