<svg xmlns="http://www.w3.org/2000/svg" xmlns:xlink="http://www.w3.org/1999/xlink" width="500" zoomAndPan="magnify" viewBox="0 0 375 374.999991" height="500" preserveAspectRatio="xMidYMid meet" version="1.0"><defs><g/><clipPath id="d27174a16b"><path d="M 139 88.230469 L 242 88.230469 L 242 192 L 139 192 Z M 139 88.230469 " clip-rule="nonzero"/></clipPath><clipPath id="48d7f13198"><path d="M 133 100 L 231 100 L 231 197.730469 L 133 197.730469 Z M 133 100 " clip-rule="nonzero"/></clipPath><clipPath id="6ecdabfb75"><path d="M 184 144 L 200 144 L 200 160 L 184 160 Z M 184 144 " clip-rule="nonzero"/></clipPath><clipPath id="ceeb6b001c"><path d="M 200.792969 157.160156 L 186.273438 160.882812 L 182.546875 146.363281 L 197.070312 142.636719 Z M 200.792969 157.160156 " clip-rule="nonzero"/></clipPath><clipPath id="0e32426814"><path d="M 193.535156 159.019531 C 197.542969 157.992188 199.960938 153.910156 198.929688 149.898438 C 197.902344 145.886719 193.820312 143.472656 189.808594 144.5 C 185.796875 145.527344 183.382812 149.613281 184.410156 153.625 C 185.4375 157.632812 189.523438 160.050781 193.535156 159.019531 " clip-rule="nonzero"/></clipPath><clipPath id="ab02b493a6"><path d="M 156 149 L 168 149 L 168 161 L 156 161 Z M 156 149 " clip-rule="nonzero"/></clipPath><clipPath id="b5bfbfc4b3"><path d="M 157.371094 148.613281 L 168.457031 150.171875 L 166.894531 161.257812 L 155.808594 159.699219 Z M 157.371094 148.613281 " clip-rule="nonzero"/></clipPath><clipPath id="819ada74cf"><path d="M 162.914062 149.394531 C 159.851562 148.960938 157.019531 151.09375 156.589844 154.15625 C 156.160156 157.21875 158.292969 160.046875 161.351562 160.480469 C 164.414062 160.910156 167.246094 158.777344 167.675781 155.714844 C 168.105469 152.65625 165.972656 149.824219 162.914062 149.394531 " clip-rule="nonzero"/></clipPath></defs><g fill="#000000" fill-opacity="1"><g transform="translate(71.085937, 237.094086)"><g><path d="M 2.234375 -11.40625 C 1.160156 -11.9375 0.625 -12.890625 0.625 -14.265625 C 0.625 -15.648438 1.175781 -16.625 2.28125 -17.1875 C 11.769531 -22.800781 17.21875 -26.035156 18.625 -26.890625 C 20.039062 -27.742188 20.890625 -28.210938 21.171875 -28.296875 C 21.472656 -28.441406 21.832031 -28.515625 22.25 -28.515625 C 22.988281 -28.515625 23.757812 -27.835938 24.5625 -26.484375 C 25.09375 -25.617188 25.359375 -24.972656 25.359375 -24.546875 C 25.359375 -24.117188 25.257812 -23.753906 25.0625 -23.453125 C 24.8125 -23.003906 24.242188 -22.488281 23.359375 -21.90625 C 15.117188 -17.039062 10.832031 -14.5 10.5 -14.28125 L 23.359375 -6.640625 C 23.890625 -6.335938 24.265625 -6.085938 24.484375 -5.890625 C 25.085938 -5.390625 25.390625 -4.851562 25.390625 -4.28125 C 25.390625 -3.71875 25.148438 -3.039062 24.671875 -2.25 C 24.191406 -1.46875 23.753906 -0.910156 23.359375 -0.578125 C 22.972656 -0.242188 22.570312 -0.078125 22.15625 -0.078125 C 21.601562 -0.078125 20.882812 -0.34375 20 -0.875 Z M 2.234375 -11.40625 "/></g></g></g><g fill="#000000" fill-opacity="1"><g transform="translate(97.103987, 237.094086)"><g><path d="M 7.296875 0.328125 C 7.078125 0.796875 6.90625 1.140625 6.78125 1.359375 C 6.65625 1.585938 6.445312 1.804688 6.15625 2.015625 C 5.875 2.222656 5.492188 2.328125 5.015625 2.328125 C 4.546875 2.328125 3.851562 2.117188 2.9375 1.703125 C 2.03125 1.285156 1.414062 0.914062 1.09375 0.59375 C 0.78125 0.28125 0.625 -0.0664062 0.625 -0.453125 C 0.625 -0.835938 0.789062 -1.53125 1.125 -2.53125 L 14.484375 -30.46875 C 15.003906 -31.507812 15.472656 -32.113281 15.890625 -32.28125 C 16.109375 -32.394531 16.429688 -32.453125 16.859375 -32.453125 C 17.296875 -32.453125 18 -32.234375 18.96875 -31.796875 C 20.457031 -31.066406 21.203125 -30.273438 21.203125 -29.421875 C 21.203125 -29.066406 21.007812 -28.375 20.625 -27.34375 Z M 7.296875 0.328125 "/></g></g></g><g fill="#000000" fill-opacity="1"><g transform="translate(118.930935, 237.094086)"><g/></g></g><g fill="#000000" fill-opacity="1"><g transform="translate(129.429447, 237.094086)"><g><path d="M 5.359375 -30.46875 L 13.03125 -30.421875 C 17.039062 -30.421875 20.566406 -28.972656 23.609375 -26.078125 C 26.648438 -23.191406 28.171875 -19.640625 28.171875 -15.421875 C 28.171875 -11.203125 26.679688 -7.582031 23.703125 -4.5625 C 20.734375 -1.550781 17.132812 -0.046875 12.90625 -0.046875 L 5.3125 -0.046875 C 3.625 -0.046875 2.570312 -0.390625 2.15625 -1.078125 C 1.820312 -1.660156 1.65625 -2.546875 1.65625 -3.734375 L 1.65625 -26.8125 C 1.65625 -27.476562 1.675781 -27.960938 1.71875 -28.265625 C 1.757812 -28.566406 1.890625 -28.925781 2.109375 -29.34375 C 2.503906 -30.09375 3.585938 -30.46875 5.359375 -30.46875 Z M 13.03125 -7.390625 C 15.019531 -7.390625 16.816406 -8.128906 18.421875 -9.609375 C 20.023438 -11.085938 20.828125 -12.945312 20.828125 -15.1875 C 20.828125 -17.425781 20.046875 -19.300781 18.484375 -20.8125 C 16.921875 -22.320312 15.085938 -23.078125 12.984375 -23.078125 L 9 -23.078125 L 9 -7.390625 Z M 13.03125 -7.390625 "/></g></g></g><g fill="#000000" fill-opacity="1"><g transform="translate(158.642698, 237.094086)"><g><path d="M 1.65625 -26.765625 C 1.65625 -27.398438 1.675781 -27.875 1.71875 -28.1875 C 1.757812 -28.507812 1.890625 -28.878906 2.109375 -29.296875 C 2.503906 -30.046875 3.585938 -30.421875 5.359375 -30.421875 C 7.296875 -30.421875 8.441406 -29.910156 8.796875 -28.890625 C 8.929688 -28.410156 9 -27.6875 9 -26.71875 L 9 -3.65625 C 9 -2.988281 8.976562 -2.503906 8.9375 -2.203125 C 8.894531 -1.898438 8.765625 -1.539062 8.546875 -1.125 C 8.160156 -0.375 7.082031 0 5.3125 0 C 3.375 0 2.238281 -0.523438 1.90625 -1.578125 C 1.738281 -2.015625 1.65625 -2.71875 1.65625 -3.6875 Z M 1.65625 -26.765625 "/></g></g></g><g fill="#000000" fill-opacity="1"><g transform="translate(169.307195, 237.094086)"><g><path d="M 9 -6.140625 L 20.296875 -6.140625 C 21.203125 -6.140625 21.863281 -6.035156 22.28125 -5.828125 C 22.695312 -5.617188 22.972656 -5.289062 23.109375 -4.84375 C 23.253906 -4.40625 23.328125 -3.816406 23.328125 -3.078125 C 23.328125 -2.347656 23.253906 -1.757812 23.109375 -1.3125 C 22.972656 -0.875 22.738281 -0.578125 22.40625 -0.421875 C 21.882812 -0.140625 21.164062 0 20.25 0 L 5.3125 0 C 3.375 0 2.238281 -0.523438 1.90625 -1.578125 C 1.738281 -2.015625 1.65625 -2.71875 1.65625 -3.6875 L 1.65625 -26.765625 C 1.65625 -27.398438 1.675781 -27.875 1.71875 -28.1875 C 1.757812 -28.507812 1.890625 -28.878906 2.109375 -29.296875 C 2.503906 -30.046875 3.585938 -30.421875 5.359375 -30.421875 C 7.296875 -30.421875 8.441406 -29.910156 8.796875 -28.890625 C 8.929688 -28.410156 9 -27.6875 9 -26.71875 Z M 9 -6.140625 "/></g></g></g><g fill="#000000" fill-opacity="1"><g transform="translate(193.665404, 237.094086)"><g><path d="M 16.328125 -30.96875 C 16.535156 -31.375 16.898438 -31.660156 17.421875 -31.828125 C 17.953125 -31.992188 18.648438 -32.078125 19.515625 -32.078125 C 20.390625 -32.078125 21.085938 -31.992188 21.609375 -31.828125 C 22.140625 -31.660156 22.507812 -31.367188 22.71875 -30.953125 C 22.925781 -30.546875 23.050781 -30.179688 23.09375 -29.859375 C 23.132812 -29.535156 23.15625 -29.054688 23.15625 -28.421875 L 23.15625 -3.65625 C 23.15625 -3.019531 23.132812 -2.539062 23.09375 -2.21875 C 23.050781 -1.90625 22.921875 -1.550781 22.703125 -1.15625 C 22.285156 -0.414062 21.113281 -0.046875 19.1875 -0.046875 C 17.269531 -0.046875 16.203125 -0.722656 15.984375 -2.078125 C 14.816406 -0.742188 13.195312 -0.078125 11.125 -0.078125 C 8.632812 -0.078125 6.363281 -1.160156 4.3125 -3.328125 C 2.269531 -5.503906 1.25 -8.035156 1.25 -10.921875 C 1.25 -13.816406 2.273438 -16.359375 4.328125 -18.546875 C 6.390625 -20.734375 8.65625 -21.828125 11.125 -21.828125 C 13.164062 -21.828125 14.753906 -21.132812 15.890625 -19.75 L 15.890625 -28.46875 C 15.890625 -29.101562 15.910156 -29.578125 15.953125 -29.890625 C 15.992188 -30.210938 16.117188 -30.570312 16.328125 -30.96875 Z M 9.578125 -8.421875 C 10.304688 -7.671875 11.179688 -7.296875 12.203125 -7.296875 C 13.222656 -7.296875 14.070312 -7.671875 14.75 -8.421875 C 15.425781 -9.171875 15.765625 -9.992188 15.765625 -10.890625 C 15.765625 -11.796875 15.4375 -12.632812 14.78125 -13.40625 C 14.132812 -14.175781 13.257812 -14.5625 12.15625 -14.5625 C 11.050781 -14.5625 10.164062 -14.179688 9.5 -13.421875 C 8.832031 -12.660156 8.5 -11.820312 8.5 -10.90625 C 8.5 -10 8.859375 -9.171875 9.578125 -8.421875 Z M 9.578125 -8.421875 "/></g></g></g><g fill="#000000" fill-opacity="1"><g transform="translate(218.480073, 237.094086)"><g><path d="M 15.859375 -19.546875 C 16.023438 -21.097656 17.113281 -21.875 19.125 -21.875 C 20.207031 -21.875 21.007812 -21.789062 21.53125 -21.625 C 22.0625 -21.457031 22.429688 -21.164062 22.640625 -20.75 C 22.847656 -20.332031 22.972656 -19.960938 23.015625 -19.640625 C 23.054688 -19.328125 23.078125 -18.851562 23.078125 -18.21875 L 23.078125 -3.6875 C 23.078125 -3.050781 23.054688 -2.570312 23.015625 -2.25 C 22.972656 -1.9375 22.851562 -1.570312 22.65625 -1.15625 C 22.269531 -0.4375 21.320312 -0.078125 19.8125 -0.078125 C 18.300781 -0.078125 17.289062 -0.265625 16.78125 -0.640625 C 16.269531 -1.015625 15.972656 -1.5625 15.890625 -2.28125 C 14.867188 -0.8125 13.160156 -0.078125 10.765625 -0.078125 C 8.367188 -0.078125 6.144531 -1.171875 4.09375 -3.359375 C 2.050781 -5.546875 1.03125 -8.082031 1.03125 -10.96875 C 1.03125 -13.863281 2.0625 -16.394531 4.125 -18.5625 C 6.1875 -20.738281 8.453125 -21.828125 10.921875 -21.828125 C 11.859375 -21.828125 12.710938 -21.660156 13.484375 -21.328125 C 14.265625 -20.992188 14.804688 -20.679688 15.109375 -20.390625 C 15.410156 -20.109375 15.660156 -19.828125 15.859375 -19.546875 Z M 8.296875 -10.90625 C 8.296875 -10 8.65625 -9.175781 9.375 -8.4375 C 10.09375 -7.707031 10.960938 -7.34375 11.984375 -7.34375 C 13.015625 -7.34375 13.867188 -7.71875 14.546875 -8.46875 C 15.222656 -9.21875 15.5625 -10.039062 15.5625 -10.9375 C 15.5625 -11.832031 15.234375 -12.664062 14.578125 -13.4375 C 13.929688 -14.21875 13.0625 -14.609375 11.96875 -14.609375 C 10.875 -14.609375 9.988281 -14.21875 9.3125 -13.4375 C 8.632812 -12.664062 8.296875 -11.820312 8.296875 -10.90625 Z M 8.296875 -10.90625 "/></g></g></g><g fill="#000000" fill-opacity="1"><g transform="translate(243.21175, 237.094086)"><g><path d="M 2.109375 -4.28125 C 1.390625 -5.164062 1.03125 -5.957031 1.03125 -6.65625 C 1.03125 -7.363281 1.628906 -8.300781 2.828125 -9.46875 C 3.515625 -10.125 4.242188 -10.453125 5.015625 -10.453125 C 5.796875 -10.453125 6.878906 -9.765625 8.265625 -8.390625 C 8.648438 -7.910156 9.203125 -7.457031 9.921875 -7.03125 C 10.640625 -6.601562 11.300781 -6.390625 11.90625 -6.390625 C 14.476562 -6.390625 15.765625 -7.441406 15.765625 -9.546875 C 15.765625 -10.179688 15.410156 -10.710938 14.703125 -11.140625 C 14.003906 -11.566406 13.128906 -11.875 12.078125 -12.0625 C 11.023438 -12.257812 9.890625 -12.570312 8.671875 -13 C 7.453125 -13.4375 6.316406 -13.941406 5.265625 -14.515625 C 4.210938 -15.097656 3.332031 -16.019531 2.625 -17.28125 C 1.925781 -18.539062 1.578125 -20.054688 1.578125 -21.828125 C 1.578125 -24.265625 2.484375 -26.390625 4.296875 -28.203125 C 6.109375 -30.015625 8.578125 -30.921875 11.703125 -30.921875 C 13.359375 -30.921875 14.867188 -30.703125 16.234375 -30.265625 C 17.609375 -29.835938 18.5625 -29.40625 19.09375 -28.96875 L 20.125 -28.171875 C 20.976562 -27.367188 21.40625 -26.691406 21.40625 -26.140625 C 21.40625 -25.585938 21.078125 -24.828125 20.421875 -23.859375 C 19.472656 -22.472656 18.503906 -21.78125 17.515625 -21.78125 C 16.929688 -21.78125 16.210938 -22.0625 15.359375 -22.625 C 15.273438 -22.675781 15.113281 -22.8125 14.875 -23.03125 C 14.644531 -23.25 14.429688 -23.429688 14.234375 -23.578125 C 13.648438 -23.929688 12.910156 -24.109375 12.015625 -24.109375 C 11.117188 -24.109375 10.367188 -23.894531 9.765625 -23.46875 C 9.171875 -23.039062 8.875 -22.445312 8.875 -21.6875 C 8.875 -20.925781 9.226562 -20.304688 9.9375 -19.828125 C 10.644531 -19.359375 11.523438 -19.039062 12.578125 -18.875 C 13.628906 -18.71875 14.773438 -18.460938 16.015625 -18.109375 C 17.265625 -17.765625 18.414062 -17.34375 19.46875 -16.84375 C 20.519531 -16.351562 21.394531 -15.488281 22.09375 -14.25 C 22.800781 -13.019531 23.15625 -11.503906 23.15625 -9.703125 C 23.15625 -7.910156 22.796875 -6.328125 22.078125 -4.953125 C 21.359375 -3.585938 20.414062 -2.53125 19.25 -1.78125 C 17.007812 -0.3125 14.617188 0.421875 12.078125 0.421875 C 10.773438 0.421875 9.539062 0.257812 8.375 -0.0625 C 7.21875 -0.382812 6.28125 -0.78125 5.5625 -1.25 C 4.09375 -2.132812 3.066406 -2.988281 2.484375 -3.8125 Z M 2.109375 -4.28125 "/></g></g></g><g fill="#000000" fill-opacity="1"><g transform="translate(267.403963, 237.094086)"><g/></g></g><g fill="#000000" fill-opacity="1"><g transform="translate(277.902475, 237.094086)"><g><path d="M 23.6875 -17.1875 C 24.789062 -16.625 25.34375 -15.648438 25.34375 -14.265625 C 25.34375 -12.890625 24.804688 -11.9375 23.734375 -11.40625 L 6.015625 -0.875 C 4.597656 0.0390625 3.460938 0.140625 2.609375 -0.578125 C 2.222656 -0.910156 1.820312 -1.410156 1.40625 -2.078125 C 0.851562 -2.984375 0.578125 -3.644531 0.578125 -4.0625 C 0.578125 -4.476562 0.660156 -4.835938 0.828125 -5.140625 C 1.128906 -5.609375 1.722656 -6.109375 2.609375 -6.640625 L 15.515625 -14.28125 L 2.65625 -21.90625 C 2.15625 -22.21875 1.78125 -22.46875 1.53125 -22.65625 C 0.914062 -23.1875 0.609375 -23.753906 0.609375 -24.359375 C 0.609375 -24.910156 0.847656 -25.578125 1.328125 -26.359375 C 2.179688 -27.796875 2.984375 -28.515625 3.734375 -28.515625 C 4.390625 -28.515625 5.132812 -28.25 5.96875 -27.71875 Z M 23.6875 -17.1875 "/></g></g></g><g fill="#03fa6e" fill-opacity="1"><g transform="translate(181.844957, 255.734992)"><g><path d="M 6.492188 0 L 6.972656 -2.210938 L 5.09375 -2.210938 C 4.074219 -2.210938 3.878906 -2.601562 4.089844 -3.5625 L 4.703125 -6.464844 L 7.859375 -6.464844 L 8.328125 -8.628906 L 5.171875 -8.628906 L 5.726562 -11.273438 L 3.335938 -11.273438 L 2.765625 -8.628906 L 1.261719 -8.628906 L 0.796875 -6.464844 L 2.316406 -6.464844 L 1.53125 -2.8125 C 1.171875 -1.097656 1.789062 0 3.757812 0 Z M 6.492188 0 "/></g></g></g><g fill="#03fa6e" fill-opacity="1"><g transform="translate(189.312159, 255.734992)"><g><path d="M 6.207031 -8.972656 C 3.320312 -8.972656 1.203125 -7.050781 0.632812 -4.449219 C 0.0585938 -1.667969 1.429688 0.226562 4.433594 0.226562 C 6.117188 0.226562 7.410156 -0.300781 8.386719 -0.839844 L 7.753906 -2.691406 C 7.019531 -2.238281 6.027344 -1.863281 4.960938 -1.863281 C 3.59375 -1.863281 2.960938 -2.660156 2.976562 -3.816406 L 9.4375 -3.816406 L 9.484375 -4.027344 C 10.128906 -7.109375 8.792969 -8.972656 6.207031 -8.972656 Z M 5.832031 -7.035156 C 7.035156 -7.035156 7.410156 -6.28125 7.335938 -5.289062 L 3.320312 -5.289062 C 3.816406 -6.3125 4.78125 -7.035156 5.832031 -7.035156 Z M 5.832031 -7.035156 "/></g></g></g><g fill="#03fa6e" fill-opacity="1"><g transform="translate(198.88288, 255.734992)"><g><path d="M 4.328125 0.226562 C 5.367188 0.226562 6.539062 -0.03125 7.457031 -0.480469 L 6.898438 -2.253906 C 6.238281 -1.9375 5.578125 -1.757812 4.871094 -1.757812 C 3.335938 -1.757812 2.707031 -2.871094 3.019531 -4.375 C 3.351562 -5.890625 4.523438 -6.972656 5.96875 -6.972656 C 6.671875 -6.972656 7.273438 -6.777344 7.800781 -6.464844 L 9.125 -8.238281 C 8.386719 -8.703125 7.320312 -8.972656 6.28125 -8.972656 C 3.351562 -8.972656 1.203125 -7.078125 0.617188 -4.375 C 0.046875 -1.652344 1.503906 0.226562 4.328125 0.226562 Z M 4.328125 0.226562 "/></g></g></g><g fill="#03fa6e" fill-opacity="1"><g transform="translate(206.951089, 255.734992)"><g><path d="M 7.09375 -8.957031 C 5.847656 -8.957031 4.691406 -8.433594 3.878906 -7.5 L 4.117188 -8.628906 L 1.742188 -8.628906 L -0.0898438 0 L 2.285156 0 L 3.335938 -4.960938 C 3.683594 -6.296875 4.539062 -7.019531 5.5625 -7.019531 C 6.433594 -7.019531 6.960938 -6.613281 6.75 -5.605469 L 5.578125 0 L 7.949219 0 L 9.320312 -6.371094 C 9.695312 -8.070312 8.597656 -8.957031 7.09375 -8.957031 Z M 7.09375 -8.957031 "/></g></g></g><g fill="#03fa6e" fill-opacity="1"><g transform="translate(216.281404, 255.734992)"><g><path d="M 4.433594 0.242188 C 7.273438 0.242188 9.632812 -1.714844 10.191406 -4.390625 C 10.761719 -7.035156 9.214844 -8.972656 6.386719 -8.972656 C 3.515625 -8.972656 1.1875 -7.035156 0.617188 -4.390625 L 0.617188 -4.375 C 0.0585938 -1.714844 1.625 0.242188 4.433594 0.242188 Z M 4.886719 -1.894531 C 3.441406 -1.894531 2.734375 -2.976562 3.019531 -4.390625 C 3.320312 -5.785156 4.480469 -6.839844 5.9375 -6.839844 C 7.394531 -6.839844 8.101562 -5.785156 7.800781 -4.390625 C 7.515625 -2.976562 6.3125 -1.894531 4.886719 -1.894531 Z M 4.886719 -1.894531 "/></g></g></g><g fill="#03fa6e" fill-opacity="1"><g transform="translate(226.4982, 255.734992)"><g><path d="M 2.285156 0 L 4.886719 -12.191406 L 2.496094 -12.191406 L -0.105469 0 Z M 2.285156 0 "/></g></g></g><g fill="#03fa6e" fill-opacity="1"><g transform="translate(229.938667, 255.734992)"><g><path d="M 4.433594 0.242188 C 7.273438 0.242188 9.632812 -1.714844 10.191406 -4.390625 C 10.761719 -7.035156 9.214844 -8.972656 6.386719 -8.972656 C 3.515625 -8.972656 1.1875 -7.035156 0.617188 -4.390625 L 0.617188 -4.375 C 0.0585938 -1.714844 1.625 0.242188 4.433594 0.242188 Z M 4.886719 -1.894531 C 3.441406 -1.894531 2.734375 -2.976562 3.019531 -4.390625 C 3.320312 -5.785156 4.480469 -6.839844 5.9375 -6.839844 C 7.394531 -6.839844 8.101562 -5.785156 7.800781 -4.390625 C 7.515625 -2.976562 6.3125 -1.894531 4.886719 -1.894531 Z M 4.886719 -1.894531 "/></g></g></g><g fill="#03fa6e" fill-opacity="1"><g transform="translate(240.155464, 255.734992)"><g><path d="M 6.597656 -8.957031 C 3.53125 -8.957031 1.171875 -7.246094 0.601562 -4.328125 C 0.0742188 -1.863281 1.097656 -0.164062 3.367188 -0.164062 C 4.539062 -0.164062 5.515625 -0.617188 6.238281 -1.472656 C 5.710938 0.78125 5.382812 1.382812 3.757812 1.382812 C 2.78125 1.382812 1.59375 1.128906 0.675781 0.8125 L 0.738281 2.960938 C 1.234375 3.15625 2.570312 3.472656 3.847656 3.472656 C 6.792969 3.472656 7.800781 2.328125 8.492188 -0.902344 L 10.117188 -8.460938 C 8.597656 -8.824219 7.53125 -8.957031 6.597656 -8.957031 Z M 6.765625 -3.894531 C 6.328125 -2.523438 5.546875 -1.894531 4.539062 -1.894531 C 3.261719 -1.894531 2.644531 -2.78125 2.992188 -4.3125 C 3.320312 -5.832031 4.480469 -6.734375 6.011719 -6.75 C 6.449219 -6.75 6.882812 -6.671875 7.320312 -6.539062 Z M 6.765625 -3.894531 "/></g></g></g><g fill="#03fa6e" fill-opacity="1"><g transform="translate(249.63603, 255.734992)"><g><path d="M 3.171875 -9.753906 C 3.816406 -9.753906 4.433594 -10.085938 4.585938 -10.808594 C 4.71875 -11.453125 4.3125 -11.84375 3.621094 -11.84375 C 2.914062 -11.84375 2.34375 -11.453125 2.210938 -10.808594 C 2.058594 -10.085938 2.511719 -9.753906 3.171875 -9.753906 Z M 2.285156 0 L 4.117188 -8.628906 L 1.726562 -8.628906 L -0.105469 0 Z M 2.285156 0 "/></g></g></g><g fill="#03fa6e" fill-opacity="1"><g transform="translate(253.076497, 255.734992)"><g><path d="M 6.554688 -8.957031 C 3.515625 -8.957031 1.140625 -7.230469 0.570312 -4.359375 C -0.0742188 -1.519531 1.082031 0.195312 3.261719 0.195312 C 4.417969 0.195312 5.5625 -0.316406 6.3125 -1.261719 L 6.042969 0 L 8.265625 0 L 10.070312 -8.460938 C 8.550781 -8.824219 7.484375 -8.957031 6.554688 -8.957031 Z M 4.492188 -1.757812 C 3.277344 -1.757812 2.617188 -2.71875 2.960938 -4.359375 C 3.308594 -5.9375 4.464844 -6.867188 5.996094 -6.867188 C 6.328125 -6.867188 6.808594 -6.839844 7.320312 -6.734375 L 6.71875 -3.894531 C 6.296875 -2.449219 5.410156 -1.757812 4.492188 -1.757812 Z M 4.492188 -1.757812 "/></g></g></g><g clip-path="url(#d27174a16b)"><path fill="#263749" d="M 227.976562 129.21875 C 228.710938 128.210938 229.308594 127.105469 229.859375 125.910156 C 233.261719 118.328125 237.121094 112.539062 241.808594 108.542969 C 238.5 107.714844 235.097656 108.910156 231.605469 112.125 C 232.339844 109.277344 232.800781 105.96875 233.078125 102.15625 C 227.976562 106.0625 225.449219 110.703125 225.953125 116.078125 C 226.277344 119.386719 226.09375 122.007812 225.3125 124.027344 C 224.761719 125.589844 223.839844 126.738281 222.601562 127.566406 C 221.636719 128.210938 220.441406 128.578125 219.015625 128.714844 C 220.257812 127.199219 220.671875 125.636719 220.347656 123.84375 C 220.027344 121.914062 218.925781 119.753906 217.269531 117.226562 C 215.800781 115.019531 214.878906 113 214.46875 111.160156 C 212.996094 105.097656 216.902344 101.050781 225.402344 99.535156 C 223.289062 98.9375 220.671875 98.480469 217.546875 98.066406 L 219.292969 88.277344 C 209.917969 94.664062 204.679688 100.226562 204.128906 104.40625 C 203.945312 106.015625 204.402344 107.394531 205.597656 108.589844 C 206.839844 109.78125 207.941406 110.933594 208.90625 112.035156 C 211.160156 114.652344 212.582031 117.179688 212.628906 120.121094 C 204.910156 112.082031 194.066406 107.117188 182.027344 107.117188 C 158.589844 107.117188 139.613281 126.09375 139.613281 149.53125 C 139.613281 172.964844 158.589844 191.941406 182.027344 191.941406 C 205.460938 191.941406 224.4375 172.964844 224.4375 149.53125 C 224.4375 144.292969 223.472656 139.328125 221.773438 134.6875 C 222.875 134.089844 223.933594 133.402344 224.945312 132.574219 C 226.09375 131.609375 227.101562 130.507812 227.976562 129.265625 Z M 227.976562 129.21875 " fill-opacity="1" fill-rule="evenodd"/></g><path fill="#263749" d="M 167.917969 154.859375 C 168.746094 145.210938 157.398438 139.789062 152.894531 147.554688 C 154.871094 146.726562 156.246094 146.542969 157.027344 147.003906 C 153.8125 149.300781 152.894531 153.621094 154.871094 157.019531 C 156.84375 160.421875 161.117188 161.707031 164.65625 160.054688 C 162.589844 160.28125 160.703125 158.902344 160.292969 156.882812 C 159.921875 154.859375 161.164062 152.839844 163.1875 152.332031 C 165.207031 151.828125 167.277344 152.929688 167.917969 154.90625 Z M 167.917969 154.859375 " fill-opacity="1" fill-rule="evenodd"/><path fill="#263749" d="M 202.886719 144.109375 C 197.511719 134.78125 183.863281 141.351562 184.828125 152.929688 C 185.609375 150.542969 188.136719 149.207031 190.527344 149.851562 C 192.960938 150.496094 194.433594 152.882812 193.972656 155.320312 C 193.511719 157.753906 191.214844 159.457031 188.734375 159.132812 C 193.007812 161.15625 198.109375 159.546875 200.5 155.503906 C 202.886719 151.414062 201.738281 146.175781 197.925781 143.464844 C 198.890625 142.914062 200.542969 143.144531 202.886719 144.152344 Z M 202.886719 144.109375 " fill-opacity="1" fill-rule="evenodd"/><path fill="#f0f1e7" d="M 183.679688 164.832031 C 181.382812 162.257812 178.074219 160.878906 174.675781 161.0625 C 171.226562 161.246094 168.101562 162.992188 166.082031 165.75 C 171.183594 161.753906 178.210938 161.386719 183.679688 164.832031 Z M 183.679688 164.832031 " fill-opacity="1" fill-rule="evenodd"/><path fill="#f0f1e7" d="M 174.675781 159.640625 C 180.695312 159.457031 185.472656 165.566406 197.878906 170.4375 C 211.984375 175.996094 215.523438 160.054688 215.523438 149.761719 C 215.523438 149.070312 215.476562 148.335938 215.433594 147.644531 C 214.46875 138.273438 208.632812 124.121094 197.878906 129.082031 C 186.207031 134.457031 178.761719 142.179688 171.183594 143.832031 C 167.550781 144.613281 163.003906 141.304688 158.132812 137.539062 C 148.941406 130.414062 144.300781 138.226562 145.679688 153.160156 C 146.136719 158.398438 149.078125 174.664062 158.132812 170.390625 C 164.65625 167.3125 164.886719 159.914062 174.675781 159.59375 Z M 184.828125 152.929688 C 183.863281 141.351562 197.511719 134.78125 202.886719 144.109375 C 200.542969 143.097656 198.890625 142.867188 197.925781 143.417969 C 201.785156 146.175781 202.886719 151.367188 200.5 155.457031 C 198.109375 159.546875 193.007812 161.109375 188.734375 159.089844 C 191.214844 159.410156 193.511719 157.710938 193.972656 155.273438 C 194.433594 152.839844 192.917969 150.402344 190.527344 149.804688 C 188.089844 149.164062 185.609375 150.542969 184.828125 152.882812 Z M 163.1875 152.289062 C 161.164062 152.792969 159.921875 154.816406 160.292969 156.835938 C 160.660156 158.859375 162.589844 160.28125 164.65625 160.007812 C 161.117188 161.660156 156.84375 160.375 154.871094 156.972656 C 152.894531 153.574219 153.8125 149.253906 157.027344 146.957031 C 156.246094 146.496094 154.871094 146.679688 152.894531 147.507812 C 157.351562 139.742188 168.699219 145.210938 167.917969 154.816406 C 167.277344 152.839844 165.207031 151.734375 163.1875 152.242188 Z M 163.1875 152.289062 " fill-opacity="1" fill-rule="evenodd"/><g clip-path="url(#48d7f13198)"><path fill="#263749" d="M 150.136719 180.777344 C 142.09375 172.734375 137.085938 161.613281 137.085938 149.300781 C 137.085938 137.03125 142.050781 125.867188 150.136719 117.824219 C 158.175781 109.78125 169.296875 104.773438 181.613281 104.773438 C 191.996094 104.773438 201.601562 108.359375 209.183594 114.332031 C 208.816406 113.828125 208.402344 113.273438 207.941406 112.816406 C 206.929688 111.621094 205.828125 110.519531 204.679688 109.414062 C 203.621094 108.359375 202.980469 107.117188 202.796875 105.695312 C 196.410156 102.570312 189.195312 100.824219 181.613281 100.824219 C 168.242188 100.824219 156.109375 106.246094 147.378906 115.019531 C 138.601562 123.796875 133.179688 135.882812 133.179688 149.253906 C 133.179688 162.625 138.601562 174.757812 147.378906 183.488281 C 156.15625 192.265625 168.242188 197.6875 181.613281 197.6875 C 194.984375 197.6875 207.113281 192.265625 215.84375 183.488281 C 224.621094 174.710938 230.042969 162.625 230.042969 149.253906 C 230.042969 143.28125 228.988281 137.582031 227.011719 132.296875 C 226.597656 132.710938 226.183594 133.078125 225.726562 133.449219 C 225.082031 133.953125 224.4375 134.457031 223.75 134.917969 C 225.265625 139.421875 226.09375 144.246094 226.09375 149.253906 C 226.09375 161.523438 221.128906 172.6875 213.042969 180.730469 C 205 188.773438 193.882812 193.78125 181.566406 193.78125 C 169.296875 193.78125 158.132812 188.816406 150.089844 180.730469 Z M 150.136719 180.777344 " fill-opacity="1" fill-rule="evenodd"/></g><g clip-path="url(#6ecdabfb75)"><g clip-path="url(#ceeb6b001c)"><g clip-path="url(#0e32426814)"><path fill="#f0f1e7" d="M 200.792969 157.160156 L 186.273438 160.882812 L 182.546875 146.363281 L 197.070312 142.636719 Z M 200.792969 157.160156 " fill-opacity="1" fill-rule="nonzero"/></g></g></g><g fill="#263749" fill-opacity="1"><g transform="translate(187.648898, 158.219791)"><g><path d="M 9.269531 -3.53125 L 9.078125 -6.875 L 1.539062 -6.339844 L 8.402344 -9.5 L 6.933594 -12.496094 L -1.527344 -8 L -0.347656 -3.40625 Z M 9.269531 -3.53125 "/></g></g></g><g clip-path="url(#ab02b493a6)"><g clip-path="url(#b5bfbfc4b3)"><g clip-path="url(#819ada74cf)"><path fill="#f0f1e7" d="M 157.371094 148.613281 L 168.457031 150.171875 L 166.894531 161.257812 L 155.808594 159.699219 Z M 157.371094 148.613281 " fill-opacity="1" fill-rule="nonzero"/></g></g></g><g fill="#263749" fill-opacity="1"><g transform="translate(166.743791, 151.61793)"><g><path d="M -7.40625 -0.199219 L -8.222656 2.164062 L -2.867188 3.9375 L -8.503906 4.167969 L -8.34375 6.65625 L -1.222656 5.957031 L -0.726562 2.453125 Z M -7.40625 -0.199219 "/></g></g></g></svg>